<?xml version="1.0" encoding="utf-8"?>
<!-- Svg Vector Icons : http://www.onlinewebfonts.com/icon -->
<!DOCTYPE svg PUBLIC "-//W3C//DTD SVG 1.1//EN" "http://www.w3.org/Graphics/SVG/1.1/DTD/svg11.dtd">
<svg version="1.1" xmlns="http://www.w3.org/2000/svg" xmlns:xlink="http://www.w3.org/1999/xlink" x="0px" y="0px" viewBox="0 0 1000 1000" enable-background="new 0 0 1000 1000" xml:space="preserve">
<metadata> Svg Vector Icons : http://www.onlinewebfonts.com/icon </metadata>
<g><g transform="translate(0.000000,511.000000) scale(0.100000,-0.100000)"><path d="M3333.6,4533.2c-236.9-63.2-406.6-163.8-598.1-355.3c-136.2-134.2-185.5-199.4-250.7-335.6c-112.5-230.9-144.1-365.2-144.1-611.9c0-244.8,31.6-382.9,140.1-604c94.7-193.4,266.5-386.9,458-513.2c738.2-491.5,1752.8-134.2,2021.2,712.6c221.1,698.8-161.9,1452.8-860.6,1689.6C3911.9,4578.6,3532.9,4588.5,3333.6,4533.2z M3943.5,4205.5c568.5-167.8,878.4-752.1,688.9-1302.8c-134.2-390.8-536.9-679-945.5-679c-232.9,0-505.3,102.6-677.1,254.6c-343.4,306-432.3,811.3-217.1,1235.7c61.2,124.4,278.3,339.5,410.6,408.6C3412.5,4235.1,3724.4,4270.7,3943.5,4205.5z"/><path d="M9578.9,2411.3c-45.4-47.4-355.3-406.6-692.8-797.5l-611.9-710.6L8165.6,917c-59.2,7.9-175.7,13.8-256.6,13.8c-132.3,0-161.9-7.9-276.3-71.1c-122.4-67.1-150-98.7-598.1-671.1c-256.6-329.6-475.7-602-483.6-604c-7.9-3.9-110.5,250.7-229,562.6c-118.4,311.9-242.8,619.8-274.4,684.9c-73,148-260.6,333.6-418.5,418.5c-248.7,130.3-165.8,124.4-1956.1,124.4c-1557.4,0-1626.5-2-1746.9-39.5c-232.9-71.1-489.5-274.4-598.1-473.7c-75-140.1-1206-3091.1-1221.8-3189.8c-29.6-179.6,47.4-394.8,195.4-548.7C432-3013,578-3074.2,763.6-3074.2c223,2,339.5,49.4,483.6,193.5c118.4,120.4,120.4,124.4,294.1,580.3c96.7,252.7,177.7,456,179.6,454c4-4-37.5-329.6-90.8-726.4c-53.3-396.7-96.7-732.3-96.7-744.2c0-19.7-90.8-25.6-382.9-25.6c-211.2,0-398.7-5.9-416.5-11.8c-75-29.6-88.8-108.6-88.8-501.4v-379l57.2-57.2l57.2-57.2h2905.6c3095,0,2992.4-4,3027.9,88.8c5.9,17.8,11.8,213.2,11.8,432.3c0,381-2,402.7-41.4,438.2c-37.5,33.6-84.9,39.5-438.2,47.4l-396.8,9.9l-94.7,710.6c-51.3,390.8-92.8,724.4-92.8,740.2s35.5-43.4,79-132.3c98.7-207.3,254.6-379,396.8-440.2c211.2-90.8,454-29.6,657.3,165.8c124.4,118.4,1731.1,2155.5,1790.3,2272c29.6,55.3,45.4,128.3,51.3,242.8c7.9,144.1,2,181.6-43.4,300c-31.6,79-47.4,148-39.5,161.9c9.9,13.8,302,355.3,649.4,756c347.4,402.7,653.3,756,677,787.6c90.8,118.4,21.7,268.4-126.3,268.4C9671.7,2500.1,9646.1,2486.3,9578.9,2411.3z M5390.4,998c134.2-49.3,296.1-191.5,355.3-311.9c23.7-49.3,189.5-469.8,367.1-933.7c177.6-465.8,329.6-844.8,335.6-844.8c7.9,0,290.2,353.3,625.7,785.6c337.5,430.3,635.6,803.4,661.2,829c154,142.1,438.2,73,521.1-128.3c35.5-82.9,35.5-199.4,0-266.5c-15.8-29.6-404.6-534.9-866.5-1125.1C6474-2170.1,6472.1-2172.1,6296.4-2152.4c-108.6,11.8-201.3,94.7-258.6,229c-21.7,49.3-191.5,491.5-379,979.1c-347.4,910-379,977.1-477.7,977.1c-59.2,0-114.5-57.2-114.5-118.4c0-29.6,92.8-758,207.3-1620.6c114.5-862.6,207.3-1583,207.3-1600.8c0-33.6-98.7-35.5-1808.1-35.5H1865l11.8,75c7.9,39.5,106.6,777.7,219.1,1638.3c154,1158.7,201.3,1575.2,187.5,1604.8C2253.9,26.8,2169,44.6,2107.8,11c-43.4-25.7-122.4-213.2-538.9-1300.8c-270.4-700.7-505.3-1294.9-525-1322.5c-80.9-108.6-292.1-154-418.5-88.8c-90.8,47.4-161.9,155.9-173.7,264.5c-7.9,86.9,39.5,219.1,558.6,1573.2c311.9,813.3,590.2,1521.9,617.8,1575.2c71.1,132.3,236.9,260.6,398.7,309.9c27.6,7.9,769.8,15.8,1652.2,15.8C5250.2,1039.4,5283.8,1039.4,5390.4,998z M6369.4-3846v-167.8H3675.1H980.7v167.8v167.8h2694.4h2694.4V-3846z"/></g></g>
</svg>